<svg width="32" height="27" viewBox="0 0 32 27" fill="none" xmlns="http://www.w3.org/2000/svg">
<path d="M12.7354 -6.67572e-05L12.7354 24.3697L17.8137 26.1179L17.8137 5.68417C17.8137 4.7213 18.2088 4.08199 18.8425 4.30185C19.671 4.55155 19.8321 5.43852 19.8321 6.39068L19.8321 14.5516C22.9931 16.214 25.4817 14.5507 25.4817 10.1645C25.4817 5.68243 24.0226 3.68572 19.7294 2.08036C18.036 1.4677 14.8977 0.433861 12.7354 -6.67572e-05Z" fill="white"/>
<path d="M19.1338 22.5507L26.8102 19.0938C27.6786 18.6865 27.8113 18.1332 27.1085 17.8424C26.3947 17.5462 25.1205 17.631 24.2428 18.0297L19.1338 20.31V16.6716L19.4264 16.5494C19.4264 16.5494 20.9052 15.8865 22.9853 15.6011C25.0613 15.3132 27.6073 15.6386 29.6083 16.5929C31.8625 17.4989 32.1152 18.8205 31.5449 19.7402C30.9663 20.6503 29.5634 21.3088 29.5634 21.3088L19.1338 26.0491" fill="white"/>
<path d="M2.27987 22.9528C-0.115831 22.1925 -0.515331 20.586 0.577572 19.658C1.58568 18.8105 3.30255 18.1726 3.30255 18.1726L10.3997 15.29L10.3997 18.5708L5.29719 20.6544C4.39337 21.0227 4.25786 21.5409 4.98586 21.812C5.72686 22.0941 7.04188 22.0182 7.94621 21.6381L10.3997 20.6304V23.5593C10.2415 23.5895 10.0657 23.62 9.90522 23.6511C7.45906 24.1137 4.85295 23.9237 2.27987 22.9528Z" fill="white"/>
<path fill-rule="evenodd" clip-rule="evenodd" d="M31.6882 25.9453C31.4865 26.1528 31.2219 26.27 30.9369 26.27C30.652 26.27 30.3787 26.1528 30.1768 25.9453C29.9775 25.7341 29.8672 25.4583 29.8672 25.161C29.8672 24.5453 30.3455 24.0478 30.9369 24.0478C31.2219 24.0478 31.4865 24.1613 31.6882 24.3732C31.8875 24.5805 31.9999 24.861 31.9999 25.161C31.9999 25.4583 31.8875 25.7341 31.6882 25.9453ZM30.0469 25.161C30.0469 24.9079 30.1378 24.6757 30.3038 24.5037C30.4739 24.3279 30.701 24.2331 30.9369 24.2331C31.1731 24.2331 31.3944 24.3279 31.5604 24.5037C31.7279 24.6757 31.8183 24.9079 31.8183 25.161C31.8183 25.6683 31.4226 26.08 30.9369 26.08C30.701 26.08 30.4739 25.9862 30.3038 25.8127C30.1378 25.6376 30.0469 25.4079 30.0469 25.161ZM31.4236 25.6226C31.4331 25.6513 31.4446 25.6683 31.4611 25.6733L31.476 25.682V25.7526H31.2446L31.2403 25.7383L31.2245 25.6957C31.2219 25.6733 31.2187 25.6438 31.2156 25.5945L31.2053 25.4012C31.2027 25.3326 31.1812 25.2927 31.1415 25.2663C31.112 25.256 31.0718 25.2481 31.012 25.2481H30.6907V25.7526H30.4799V24.5134H31.0326C31.1228 24.5134 31.1987 24.5301 31.2568 24.5558C31.3733 24.6129 31.4331 24.7159 31.4331 24.8608C31.4331 24.9319 31.4161 24.9984 31.3869 25.0476C31.3616 25.0822 31.3317 25.1139 31.2991 25.1448L31.3078 25.1512C31.3299 25.1673 31.3518 25.1833 31.3647 25.2069C31.3941 25.2408 31.4075 25.2977 31.4099 25.3708L31.4152 25.5286C31.4161 25.569 31.4192 25.6004 31.4236 25.6226ZM31.1742 25.0134C31.2085 24.9905 31.2245 24.9448 31.2245 24.875C31.2245 24.8014 31.2001 24.7523 31.1522 24.7279C31.1228 24.7159 31.0862 24.7072 31.0371 24.7072H30.6907V25.0553H31.018C31.0831 25.0553 31.1348 25.0413 31.1742 25.0134Z" fill="white"/>
</svg>
