<svg width="32" height="32" viewBox="0 0 32 32" fill="none" xmlns="http://www.w3.org/2000/svg">
<path fill-rule="evenodd" clip-rule="evenodd" d="M16 0C19.0857 0 21.6381 0.985994 23.9619 2.64426C24 2.64426 24 2.68908 24 2.73389C24 2.77871 23.9619 2.77871 23.9238 2.77871C20.9524 2.01681 16.4571 5.01961 16.0381 5.33333H16H15.9619C15.5429 5.01961 11.0476 2.01681 8.07619 2.77871C8.0381 2.77871 8 2.77871 8 2.73389C8 2.68908 8 2.64426 8.0381 2.64426C10.3619 0.985994 12.9143 0 16 0ZM26.2246 28.158C28.6244 25.6743 20.6893 16.9037 16.0057 13.3333C16.0057 13.3333 15.967 13.3333 15.967 13.3721C11.322 16.9037 3.34818 25.6743 5.78678 28.158C8.49633 30.5641 12.0962 32 16.0057 32C19.9152 32 23.4763 30.5641 26.2246 28.158ZM4.38356 5.40926C4.3653 5.40926 4.35616 5.41928 4.34703 5.42931C4.3379 5.43934 4.32877 5.44936 4.3105 5.44936C1.64384 8.37727 0 12.4282 0 16.8802C0 20.5301 1.13242 23.9393 2.99543 26.6266C2.99543 26.6667 3.03196 26.6667 3.06849 26.6667C3.10502 26.6667 3.10502 26.6266 3.06849 26.5864C1.93607 22.7762 7.67123 13.5914 10.6301 9.74095L10.6667 9.70085C10.6667 9.68017 10.6667 9.67015 10.6617 9.6653C10.657 9.66074 10.6478 9.66074 10.6301 9.66074C6.13699 4.76752 4.63927 5.28893 4.38356 5.40926ZM21.3333 9.68429L21.3699 9.64414C25.863 4.7863 27.3607 5.30822 27.5799 5.38851C27.5951 5.38851 27.604 5.38851 27.6118 5.39139C27.6227 5.39545 27.6316 5.4052 27.653 5.42866C30.3562 8.35942 32 12.4143 32 16.8707C32 20.5241 30.8676 23.9366 29.0046 26.6265C29.0046 26.6667 28.968 26.6667 28.9315 26.6667V26.5864C30.0274 22.7724 24.3288 13.5786 21.3699 9.72444C21.3333 9.72444 21.3333 9.68429 21.3333 9.68429Z" fill="white"/>
</svg>
