<svg width="15" height="7" viewBox="0 0 15 7" fill="none" xmlns="http://www.w3.org/2000/svg">
<path d="M2.77639 6.04801C2.38172 6.04801 2.03506 6.01068 1.73639 5.93601C1.44306 5.85601 1.19506 5.71468 0.992391 5.51201C0.795057 5.30401 0.645724 5.00268 0.544391 4.60801C0.448391 4.21334 0.400391 3.69868 0.400391 3.06401C0.400391 2.42401 0.451057 1.90668 0.552391 1.51201C0.653724 1.11201 0.803057 0.808009 1.00039 0.600009C1.20306 0.386676 1.45106 0.240009 1.74439 0.160009C2.04306 0.0800087 2.38706 0.0400085 2.77639 0.0400085C3.17639 0.0400085 3.52572 0.0800087 3.82439 0.160009C4.12306 0.240009 4.37106 0.386676 4.56839 0.600009C4.76572 0.808009 4.91239 1.11201 5.00839 1.51201C5.10972 1.90668 5.16039 2.42401 5.16039 3.06401C5.16039 3.69868 5.10972 4.21334 5.00839 4.60801C4.91239 5.00268 4.76306 5.30401 4.56039 5.51201C4.36306 5.71468 4.11506 5.85601 3.81639 5.93601C3.52306 6.01068 3.17639 6.04801 2.77639 6.04801ZM2.77639 5.16001C3.03772 5.16001 3.25639 5.13334 3.43239 5.08001C3.61372 5.02134 3.75772 4.92001 3.86439 4.77601C3.97106 4.62668 4.04839 4.41601 4.09639 4.14401C4.14439 3.86668 4.16839 3.50668 4.16839 3.06401C4.16839 2.59468 4.14172 2.22134 4.08839 1.94401C4.04039 1.66134 3.96306 1.44801 3.85639 1.30401C3.74972 1.15468 3.60839 1.05601 3.43239 1.00801C3.25639 0.954676 3.03772 0.928009 2.77639 0.928009C2.53106 0.928009 2.32039 0.954676 2.14439 1.00801C1.96839 1.05601 1.82439 1.15468 1.71239 1.30401C1.60572 1.44801 1.52572 1.66134 1.47239 1.94401C1.41906 2.22134 1.39239 2.59468 1.39239 3.06401C1.39239 3.50668 1.41372 3.86668 1.45639 4.14401C1.50439 4.41601 1.58172 4.62668 1.68839 4.77601C1.79506 4.92001 1.93639 5.02134 2.11239 5.08001C2.29372 5.13334 2.51506 5.16001 2.77639 5.16001Z" fill="#939393"/>
<path d="M6.11489 6.00001V1.38401C6.11489 1.13334 6.15222 0.925342 6.22689 0.760009C6.30156 0.589342 6.40022 0.456009 6.52289 0.360009C6.65089 0.264009 6.78956 0.197342 6.93889 0.160009C7.09356 0.117342 7.24556 0.0960088 7.39489 0.0960088C7.60289 0.0960088 7.84822 0.0986754 8.13089 0.104009C8.41356 0.104009 8.70956 0.112009 9.01889 0.128009C9.32822 0.138675 9.62689 0.157342 9.91489 0.184009V1.00801H7.65889C7.48289 1.00801 7.34422 1.05868 7.24289 1.16001C7.14689 1.25601 7.09889 1.38934 7.09889 1.56001V2.75201L9.55489 2.80801V3.58401L7.09889 3.64001V6.00001H6.11489Z" fill="#939393"/>
<path d="M10.654 6.00001V1.38401C10.654 1.13334 10.6913 0.925342 10.766 0.760009C10.8406 0.589342 10.9393 0.456009 11.062 0.360009C11.19 0.264009 11.3286 0.197342 11.478 0.160009C11.6326 0.117342 11.7846 0.0960088 11.934 0.0960088C12.142 0.0960088 12.3873 0.0986754 12.67 0.104009C12.9526 0.104009 13.2486 0.112009 13.558 0.128009C13.8673 0.138675 14.166 0.157342 14.454 0.184009V1.00801H12.198C12.022 1.00801 11.8833 1.05868 11.782 1.16001C11.686 1.25601 11.638 1.38934 11.638 1.56001V2.75201L14.094 2.80801V3.58401L11.638 3.64001V6.00001H10.654Z" fill="#939393"/>
</svg>
