<svg width="11" height="7" viewBox="0 0 11 7" fill="none" xmlns="http://www.w3.org/2000/svg">
<path d="M2.63577 6.04804C2.2411 6.04804 1.89443 6.01071 1.59577 5.93604C1.30243 5.85604 1.05443 5.71471 0.851766 5.51204C0.654432 5.30404 0.505099 5.00271 0.403766 4.60804C0.307766 4.21337 0.259766 3.69871 0.259766 3.06404C0.259766 2.42404 0.310432 1.90671 0.411766 1.51204C0.513099 1.11204 0.662432 0.808039 0.859766 0.600039C1.06243 0.386706 1.31043 0.240039 1.60377 0.160039C1.90243 0.0800392 2.24643 0.0400391 2.63577 0.0400391C3.03577 0.0400391 3.3851 0.0800392 3.68377 0.160039C3.98243 0.240039 4.23043 0.386706 4.42777 0.600039C4.6251 0.808039 4.77177 1.11204 4.86777 1.51204C4.9691 1.90671 5.01977 2.42404 5.01977 3.06404C5.01977 3.69871 4.9691 4.21337 4.86777 4.60804C4.77177 5.00271 4.62243 5.30404 4.41977 5.51204C4.22243 5.71471 3.97443 5.85604 3.67577 5.93604C3.38243 6.01071 3.03577 6.04804 2.63577 6.04804ZM2.63577 5.16004C2.8971 5.16004 3.11577 5.13337 3.29177 5.08004C3.4731 5.02137 3.6171 4.92004 3.72377 4.77604C3.83043 4.62671 3.90777 4.41604 3.95577 4.14404C4.00377 3.86671 4.02777 3.50671 4.02777 3.06404C4.02777 2.59471 4.0011 2.22137 3.94777 1.94404C3.89977 1.66137 3.82243 1.44804 3.71577 1.30404C3.6091 1.15471 3.46777 1.05604 3.29177 1.00804C3.11577 0.954706 2.8971 0.92804 2.63577 0.92804C2.39043 0.92804 2.17977 0.954706 2.00377 1.00804C1.82777 1.05604 1.68377 1.15471 1.57177 1.30404C1.4651 1.44804 1.3851 1.66137 1.33177 1.94404C1.27843 2.22137 1.25177 2.59471 1.25177 3.06404C1.25177 3.50671 1.2731 3.86671 1.31577 4.14404C1.36377 4.41604 1.4411 4.62671 1.54777 4.77604C1.65443 4.92004 1.79577 5.02137 1.97177 5.08004C2.1531 5.13337 2.37443 5.16004 2.63577 5.16004Z" fill="white"/>
<path d="M6.03827 6.00004V0.0960393H6.83027L9.51827 4.31204V0.0960393H10.5103V6.00004H9.71827L7.03027 1.78404V6.00004H6.03827Z" fill="white"/>
</svg>
