<svg width="48" height="48" viewBox="0 0 48 48" fill="none" xmlns="http://www.w3.org/2000/svg">
<path fill-rule="evenodd" clip-rule="evenodd" d="M15.6905 9.55045C20.8745 8.81642 27.1265 8.81642 32.3105 9.55045C37.0205 10.2185 40.6705 13.5226 41.3665 17.0828C42.2125 21.393 42.2125 26.6093 41.3665 30.9195C40.6685 34.4797 37.0205 37.7838 32.3105 38.4519C27.1265 39.1859 20.8725 39.1859 15.6905 38.4519C10.9805 37.7838 7.33248 34.4797 6.63448 30.9195C5.78848 26.6093 5.78848 21.393 6.63448 17.0828C7.33248 13.5226 10.9805 10.2185 15.6905 9.55045ZM32.8705 5.59026C27.3165 4.80422 20.6845 4.80422 15.1305 5.59026C9.10048 6.4443 3.80048 10.7465 2.71048 16.3148C1.76448 21.133 1.76448 26.8693 2.71048 31.6875C3.80048 37.2558 9.10048 41.558 15.1305 42.412C20.6845 43.1981 27.3165 43.1981 32.8705 42.412C38.9005 41.558 44.2005 37.2558 45.2905 31.6875C46.2365 26.8693 46.2365 21.133 45.2905 16.3148C44.2005 10.7465 38.9005 6.4443 32.8705 5.59026ZM21.1105 14.3367C20.8093 14.1357 20.4592 14.0203 20.0975 14.0027C19.7358 13.9852 19.3762 14.0661 19.0569 14.2369C18.7377 14.4078 18.4708 14.6621 18.2847 14.9727C18.0987 15.2833 18.0004 15.6387 18.0005 16.0008V32.0015C18.0004 32.3636 18.0987 32.719 18.2847 33.0296C18.4708 33.3402 18.7377 33.5945 19.0569 33.7654C19.3762 33.9362 19.7358 34.0171 20.0975 33.9996C20.4592 33.982 20.8093 33.8666 21.1105 33.6656L33.1105 25.6652C33.3844 25.4826 33.609 25.2351 33.7643 24.9448C33.9197 24.6545 34.0009 24.3304 34.0009 24.0012C34.0009 23.6719 33.9197 23.3478 33.7643 23.0575C33.609 22.7672 33.3844 22.5197 33.1105 22.3371L21.1105 14.3367ZM28.3945 24.0012L22.0005 28.2654V19.7389L28.3945 24.0012Z" fill="white"/>
</svg>
